<svg width="120" height="33" viewBox="0 0 120 33" fill="none" xmlns="http://www.w3.org/2000/svg">
<path fill-rule="evenodd" clip-rule="evenodd" d="M72.1572 26.4405C70.7101 26.8458 68.8252 27.0146 67.2098 27.0146C63.0028 27.0146 60.243 24.8197 60.243 20.8012C60.243 16.9855 62.8346 14.5203 66.604 14.5203C67.4453 14.5203 68.354 14.6216 68.8925 14.8918V9.35376H72.1572V26.4405ZM68.8925 17.7282C68.3878 17.4918 67.6809 17.3568 66.8732 17.3568C64.8876 17.3568 63.575 18.5725 63.575 20.6999C63.575 22.9623 64.9885 24.2456 67.3106 24.2456C67.7145 24.2456 68.354 24.2456 68.8925 24.1104V17.7282ZM98.9813 26.4405C97.5341 26.8458 95.6494 27.0146 94.0002 27.0146C89.8268 27.0146 87.0333 24.8197 87.0333 20.8012C87.0333 16.9855 89.6248 14.5203 93.3944 14.5203C94.2694 14.5203 95.1444 14.6216 95.6831 14.8918V9.35376H98.9813V26.4405ZM95.6831 17.7282C95.1782 17.4918 94.5051 17.3568 93.6974 17.3568C91.6779 17.3568 90.3652 18.5725 90.3652 20.6999C90.3652 22.9623 91.8125 24.2456 94.1348 24.2456C94.5387 24.2456 95.1444 24.2456 95.6831 24.1104V17.7282ZM77.3067 17.7282C77.8452 17.4918 78.6193 17.4243 79.2587 17.4243C81.2782 17.4243 82.6579 18.5725 82.6579 20.6324C82.6579 23.0637 81.1098 24.1779 79.0567 24.2118V27.0146H79.2251C83.4658 27.0146 85.9901 24.6845 85.9901 20.531C85.9901 16.749 83.2975 14.5203 79.326 14.5203C77.3067 14.5203 75.3209 14.9931 74.0083 15.5333V31.5733H77.3067V17.7282Z" fill="#262626"/>
<path fill-rule="evenodd" clip-rule="evenodd" d="M48.1941 6.71985L48.7331 7.32769L49.0364 7.15883L48.1941 6.71985Z" fill="#262626"/>
<path fill-rule="evenodd" clip-rule="evenodd" d="M47.3864 6.28088L48.4308 7.49654L48.8014 7.29393L48.397 6.82118L47.3864 6.28088Z" fill="#262626"/>
<path fill-rule="evenodd" clip-rule="evenodd" d="M46.5449 5.84186L48.1268 7.66535L48.4971 7.46274L47.5883 6.38215L46.5449 5.84186Z" fill="#262626"/>
<path fill-rule="evenodd" clip-rule="evenodd" d="M45.7372 5.40289L47.824 7.83421L48.1941 7.6316L46.747 5.94319L45.7372 5.40289ZM49.7422 9.69144L49.5067 9.8265L49.7422 10.0966V9.69144Z" fill="#262626"/>
<path fill-rule="evenodd" clip-rule="evenodd" d="M44.9294 4.96393L47.521 8.00308L47.8913 7.80047L45.9391 5.50422L44.9294 4.96393ZM49.6076 9.759L49.2375 9.99537L49.7422 10.6032V9.9616L49.6076 9.759Z" fill="#262626"/>
<path fill-rule="evenodd" clip-rule="evenodd" d="M44.088 4.52496L47.2182 8.17195L47.6221 7.96934L45.1314 5.06524L44.088 4.52496ZM49.3048 9.92787L48.9345 10.1642L49.7423 11.1098V10.4682L49.3048 9.92787Z" fill="#262626"/>
<path fill-rule="evenodd" clip-rule="evenodd" d="M43.2803 4.08594L46.9488 8.34076L47.3191 8.13814L44.2899 4.62623L43.2803 4.08594ZM49.0018 10.1304L48.6317 10.333L49.7422 11.65V11.0084L49.0018 10.1304Z" fill="#262626"/>
<path fill-rule="evenodd" clip-rule="evenodd" d="M42.4725 3.64697L46.646 8.50961L47.0161 8.30701L43.4822 4.18727L42.4725 3.64697ZM48.699 10.2993L48.3287 10.5019L49.7422 12.1566V11.515L48.699 10.2993Z" fill="#262626"/>
<path fill-rule="evenodd" clip-rule="evenodd" d="M41.6312 3.20795L46.343 8.67841L46.7132 8.4758L42.6745 3.74824L41.6312 3.20795ZM48.396 10.4681L48.0259 10.6707L49.7422 12.6631V12.0214L48.396 10.4681Z" fill="#262626"/>
<path fill-rule="evenodd" clip-rule="evenodd" d="M40.8235 2.76898L46.0401 8.88105L46.4103 8.64467L41.8331 3.30928L40.8235 2.76898ZM48.0932 10.637L47.7229 10.8396L49.7422 13.2034V12.5618L48.0932 10.637Z" fill="#262626"/>
<path fill-rule="evenodd" clip-rule="evenodd" d="M39.9821 2.33002L45.7372 9.04991L46.1075 8.81353L41.0255 2.87031L39.9821 2.33002ZM47.824 10.8058L47.4201 11.0084L49.7422 13.7099V13.0683L47.824 10.8058Z" fill="#262626"/>
<path fill-rule="evenodd" clip-rule="evenodd" d="M39.1743 1.89099L45.4344 9.21867L45.8382 8.98234L40.2175 2.43129L39.1743 1.89099ZM47.521 10.9746L47.1509 11.1772L49.7422 14.2502V13.5748L47.521 10.9746Z" fill="#262626"/>
<path fill-rule="evenodd" clip-rule="evenodd" d="M38.3666 1.45203L45.1651 9.38752L45.5352 9.15114L39.3762 1.99232L38.3666 1.45203ZM47.2182 11.1435L46.8479 11.3461L49.7422 14.7567V14.1151L47.2182 11.1435Z" fill="#262626"/>
<path fill-rule="evenodd" clip-rule="evenodd" d="M37.5251 0.979248L44.8622 9.55634L45.2324 9.31997L38.5685 1.55331L37.5251 0.979248ZM46.9152 11.3123L46.5449 11.5149L49.7423 15.2632V14.6216L46.9152 11.3123Z" fill="#262626"/>
<path fill-rule="evenodd" clip-rule="evenodd" d="M36.7174 0.540283L44.5594 9.72521L44.9295 9.52261L37.7607 1.11434L36.7174 0.540283ZM46.6123 11.4812L46.2421 11.6838L49.7423 15.8035V15.1282L46.6123 11.4812Z" fill="#262626"/>
<path fill-rule="evenodd" clip-rule="evenodd" d="M35.9097 0.135071L44.2564 9.89405L44.6267 9.69145L36.9193 0.675362L35.9097 0.135071ZM46.3094 11.65L45.9391 11.8526L49.7423 16.31V15.6684L46.3094 11.65Z" fill="#262626"/>
<path fill-rule="evenodd" clip-rule="evenodd" d="M35.3712 0L43.9534 10.0629L44.3237 9.8603L36.1117 0.236377L35.9097 0.135073C35.7414 0.0337682 35.5732 0 35.3712 0ZM46.0065 11.8189L45.6364 12.0215L49.7423 16.8166V16.1749L46.0065 11.8189Z" fill="#262626"/>
<path fill-rule="evenodd" clip-rule="evenodd" d="M35.3711 0C35.2365 0 35.1019 0.0337682 34.9673 0.0675364L43.6505 10.2317L44.0544 10.0291L35.4721 0C35.4385 0 35.4048 0 35.3711 0ZM45.7372 11.9877L45.367 12.1903L49.7422 17.3568V16.6815L45.7372 11.9877Z" fill="#262626"/>
<path fill-rule="evenodd" clip-rule="evenodd" d="M35.0682 0.0337524C35.0009 0.0675207 34.8999 0.101289 34.8663 0.135057L34.6643 0.236361L43.3813 10.4006L43.7514 10.198L35.0682 0.0337524ZM45.4343 12.1565L45.064 12.3929L49.7422 17.8634V17.2218L45.4343 12.1565Z" fill="#262626"/>
<path fill-rule="evenodd" clip-rule="evenodd" d="M34.7317 0.168823L34.3615 0.371433L43.0783 10.5694L43.4486 10.3668L34.7317 0.168823ZM45.1314 12.3254L44.7612 12.5617L49.7422 18.3699V17.7284L45.1314 12.3254Z" fill="#262626"/>
<path fill-rule="evenodd" clip-rule="evenodd" d="M34.4288 0.337708L34.0586 0.540316L42.7755 10.7383L43.1457 10.5357L34.4288 0.337708ZM44.8286 12.4943L44.4583 12.7306L49.7423 18.9102V18.2686L44.8286 12.4943Z" fill="#262626"/>
<path fill-rule="evenodd" clip-rule="evenodd" d="M34.1258 0.506531L33.7556 0.709142L42.4725 10.9071L42.8428 10.7045L34.1258 0.506531ZM44.5256 12.6631L44.1553 12.8995L49.7422 19.4167V18.7752L44.5256 12.6631Z" fill="#262626"/>
<path fill-rule="evenodd" clip-rule="evenodd" d="M33.823 0.675354L33.4528 0.877964L42.1697 11.0759L42.5399 10.8733L33.823 0.675354ZM44.2226 12.8319L43.8525 13.0683L49.7423 19.9233V19.2817L44.2226 12.8319Z" fill="#262626"/>
<path fill-rule="evenodd" clip-rule="evenodd" d="M33.5201 0.844238L33.1499 1.04684L41.8668 11.2448L42.2371 11.0422L33.5201 0.844238ZM43.9534 13.0008L43.5833 13.2372L49.7423 20.4635V19.822L43.9534 13.0008Z" fill="#262626"/>
<path fill-rule="evenodd" clip-rule="evenodd" d="M33.2171 0.979248L32.8469 1.21563L41.5975 11.4136L41.9678 11.211L33.2171 0.979248ZM43.6506 13.2033L43.2803 13.406L49.7422 20.9701V20.3285L43.6506 13.2033Z" fill="#262626"/>
<path fill-rule="evenodd" clip-rule="evenodd" d="M32.9143 1.14813L32.5441 1.35074L41.2947 11.5825L41.6649 11.3799L32.9143 1.14813ZM43.3476 13.3722L42.9775 13.5748L49.7423 21.5103V20.8351L43.3476 13.3722Z" fill="#262626"/>
<path fill-rule="evenodd" clip-rule="evenodd" d="M32.6113 1.31696L32.2411 1.51957L40.9917 11.7851L41.362 11.5487L32.6113 1.31696ZM43.0447 13.5411L42.6744 13.7437L49.7422 22.0169V21.3753L43.0447 13.5411Z" fill="#262626"/>
<path fill-rule="evenodd" clip-rule="evenodd" d="M32.3085 1.48578L31.9382 1.68838L40.6888 11.9539L41.0591 11.7175L32.3085 1.48578ZM42.7418 13.7099L42.3717 13.9125L49.7423 22.5234V21.8817L42.7418 13.7099Z" fill="#262626"/>
<path fill-rule="evenodd" clip-rule="evenodd" d="M32.0055 1.65466L31.6353 1.85727L40.3859 12.1228L40.7562 11.8864L32.0055 1.65466ZM42.4389 13.8788L42.0686 14.0814L49.7422 23.0637V22.3883L42.4389 13.8788Z" fill="#262626"/>
<path fill-rule="evenodd" clip-rule="evenodd" d="M31.7026 1.82349L31.3324 2.02609L40.0831 12.2916L40.4532 12.0552L31.7026 1.82349ZM42.1697 14.0476L41.7994 14.2502L49.7422 23.5702V22.9286L42.1697 14.0476Z" fill="#262626"/>
<path fill-rule="evenodd" clip-rule="evenodd" d="M31.3997 1.95856L30.9958 2.16116L39.8137 12.4605L40.184 12.2241L31.3997 1.95856ZM41.8668 14.2164L41.4966 14.419L49.7423 24.0768V23.4352L41.8668 14.2164Z" fill="#262626"/>
<path fill-rule="evenodd" clip-rule="evenodd" d="M31.0969 2.12744L30.693 2.33005L39.5445 12.6631C39.5782 12.5956 39.6118 12.5618 39.6793 12.528L39.8812 12.393L31.0969 2.12744ZM41.564 14.3853L41.1937 14.5879L49.675 24.5157C49.7087 24.4145 49.7423 24.3132 49.7423 24.2118V23.9416L41.564 14.3853Z" fill="#262626"/>
<path fill-rule="evenodd" clip-rule="evenodd" d="M30.7939 2.2962L30.39 2.49881L39.4436 13.0683V12.9332C39.4436 12.8319 39.5109 12.6968 39.5782 12.5955L30.7939 2.2962ZM41.261 14.5541L40.9917 14.7229C40.9581 14.7229 40.9244 14.7567 40.8908 14.7567L49.5067 24.8533C49.6076 24.7183 49.6749 24.5831 49.7087 24.4481L41.261 14.5541Z" fill="#262626"/>
<path fill-rule="evenodd" clip-rule="evenodd" d="M30.491 2.46509L30.0872 2.66769L39.4436 13.6086V12.9332L30.491 2.46509ZM40.3186 14.5879L49.2711 25.0897C49.3721 25.0222 49.473 24.8872 49.574 24.7859L40.9581 14.7229C40.8235 14.7905 40.6216 14.7905 40.487 14.7229L40.3186 14.5879Z" fill="#262626"/>
<path fill-rule="evenodd" clip-rule="evenodd" d="M30.1881 2.63391L29.7843 2.83652L48.9683 25.2586L49.2375 25.1235C49.2711 25.0897 49.3048 25.056 49.3384 25.0222L40.5206 14.7229H40.487L39.7128 14.2502C39.6455 14.2164 39.6118 14.1489 39.5445 14.0813C39.4772 13.98 39.4772 13.9125 39.4436 13.8449V13.4735L30.1881 2.63391Z" fill="#262626"/>
<path fill-rule="evenodd" clip-rule="evenodd" d="M29.8852 2.80273L29.4813 3.00534L48.6653 25.4274L49.0356 25.2249L29.8852 2.80273Z" fill="#262626"/>
<path fill-rule="evenodd" clip-rule="evenodd" d="M29.5823 2.93787L29.1785 3.14047L48.3961 25.5963L48.7664 25.3938L29.5823 2.93787Z" fill="#262626"/>
<path fill-rule="evenodd" clip-rule="evenodd" d="M29.2794 3.10669L28.8755 3.3093L48.0932 25.7651L48.4633 25.5626L29.2794 3.10669Z" fill="#262626"/>
<path fill-rule="evenodd" clip-rule="evenodd" d="M28.9765 3.27551L28.5726 3.47812L47.7903 25.934L48.1606 25.7313L28.9765 3.27551Z" fill="#262626"/>
<path fill-rule="evenodd" clip-rule="evenodd" d="M28.64 3.44434L28.2698 3.64694L47.4875 26.1366L47.8576 25.9001L28.64 3.44434Z" fill="#262626"/>
<path fill-rule="evenodd" clip-rule="evenodd" d="M28.337 3.61322L27.9668 3.81583L47.1844 26.3054L47.5547 26.069L28.337 3.61322Z" fill="#262626"/>
<path fill-rule="evenodd" clip-rule="evenodd" d="M28.0342 3.78204L27.6639 3.98465L46.9153 26.4742L47.2854 26.2379L28.0342 3.78204Z" fill="#262626"/>
<path fill-rule="evenodd" clip-rule="evenodd" d="M27.7312 3.91711L27.361 4.11972L46.6123 26.6431L46.9825 26.4067L27.7312 3.91711Z" fill="#262626"/>
<path fill-rule="evenodd" clip-rule="evenodd" d="M27.4283 4.08594L27.0581 4.28856L46.3094 26.8119L46.6797 26.6094L27.4283 4.08594Z" fill="#262626"/>
<path fill-rule="evenodd" clip-rule="evenodd" d="M27.1253 4.25476L26.7551 4.45737L36.1115 15.3982L36.4144 15.6008C36.549 15.6684 36.6837 15.8372 36.6837 16.0061V16.0398L46.0064 26.9807L46.3767 26.7782L27.1253 4.25476Z" fill="#262626"/>
<path fill-rule="evenodd" clip-rule="evenodd" d="M26.8225 4.42365L26.4523 4.62625L35.2365 14.9256L36.3471 15.5334L26.8225 4.42365ZM36.6501 15.9048C36.6501 15.9386 36.6837 15.9724 36.6837 16.0061V16.5802L45.7036 27.1496L46.0737 26.9471L36.6501 15.9048Z" fill="#262626"/>
<path fill-rule="evenodd" clip-rule="evenodd" d="M26.5196 4.59247L26.1494 4.79507L34.3615 14.419L35.4722 15.0269L26.5196 4.59247ZM36.6838 16.4451V17.0866L45.4344 27.3185L45.8045 27.1158L36.6838 16.4451Z" fill="#262626"/>
<path fill-rule="evenodd" clip-rule="evenodd" d="M26.2167 4.76129L25.8464 4.9639L33.52 13.9125L34.597 14.5203L26.2167 4.76129ZM36.6837 16.9516V17.627L45.1314 27.4873L45.5017 27.2848L36.6837 16.9516Z" fill="#262626"/>
<path fill-rule="evenodd" clip-rule="evenodd" d="M25.9138 4.89636L25.5436 5.09897L32.645 13.406L33.722 14.0475L25.9138 4.89636ZM36.6838 17.4918V18.1336L44.8286 27.6562L45.1987 27.4535L36.6838 17.4918Z" fill="#262626"/>
<path fill-rule="evenodd" clip-rule="evenodd" d="M25.6108 5.06519L25.2406 5.26779L31.7699 12.8994L32.8469 13.541L25.6108 5.06519ZM36.6837 17.9984V18.6399L44.5255 27.825L44.8958 27.6223L36.6837 17.9984Z" fill="#262626"/>
<path fill-rule="evenodd" clip-rule="evenodd" d="M25.308 5.23407L24.9377 5.43669L30.8949 12.4267L31.9719 13.0345L25.308 5.23407ZM36.6837 18.505V19.1804L44.2227 28.0276L44.5929 27.7912L36.6837 18.505Z" fill="#262626"/>
<path fill-rule="evenodd" clip-rule="evenodd" d="M25.0051 5.40289L24.6349 5.6055L30.0199 11.9201L31.0968 12.528L25.0051 5.40289ZM36.6838 19.0452V19.6869L43.9534 28.1964L44.3237 27.96L36.6838 19.0452Z" fill="#262626"/>
<path fill-rule="evenodd" clip-rule="evenodd" d="M24.7021 5.57172L24.3319 5.77432L29.1447 11.4136L30.2553 12.0214L24.7021 5.57172ZM36.6837 19.5517V20.1933L43.6505 28.3652L44.0206 28.1289L36.6837 19.5517Z" fill="#262626"/>
<path fill-rule="evenodd" clip-rule="evenodd" d="M24.3993 5.7406L24.0291 5.94322L28.2697 10.9071L29.3804 11.5487L24.3993 5.7406ZM33.2172 16.6815L34.0922 17.6946V17.323C34.0922 17.2555 34.0249 17.1543 33.9576 17.1205L33.2172 16.6815ZM36.6837 20.0583V20.7337L43.3476 28.5341L43.7179 28.2978L36.6837 20.0583Z" fill="#262626"/>
<path fill-rule="evenodd" clip-rule="evenodd" d="M24.0964 5.87567L23.7262 6.07829L27.3947 10.4006L28.5054 11.0422L24.0964 5.87567ZM32.3422 16.175L34.0923 18.2011V17.5595L33.4528 16.8166L32.3422 16.175ZM36.6838 20.5985V21.2403L43.0448 28.703L43.4149 28.5003L36.6838 20.5985Z" fill="#262626"/>
<path fill-rule="evenodd" clip-rule="evenodd" d="M23.7934 6.04449L23.4232 6.2471L26.5532 9.92781L27.6302 10.5356L23.7934 6.04449ZM31.467 15.7022L34.0922 18.7413V18.0997L32.5777 16.31L31.467 15.7022ZM36.6837 21.1051V21.7466L42.7418 28.8718L43.1121 28.6691L36.6837 21.1051Z" fill="#262626"/>
<path fill-rule="evenodd" clip-rule="evenodd" d="M23.4906 6.21332L23.1204 6.41592L25.6782 9.42127L26.7552 10.0291L23.4906 6.21332ZM30.6257 15.1957L34.0923 19.2478V18.6063L31.7027 15.8035L30.6257 15.1957ZM36.6838 21.6453V22.287L42.4726 29.0406L42.8429 28.838L36.6838 21.6453Z" fill="#262626"/>
<path fill-rule="evenodd" clip-rule="evenodd" d="M23.1876 6.3822L22.8174 6.58483L24.8031 8.91484L25.8801 9.52263L23.1876 6.3822ZM29.7506 14.6892L34.0922 19.7545V19.1129L30.8275 15.3307L29.7506 14.6892ZM36.6837 22.1519V22.7935L42.1697 29.2095L42.5398 29.0069L36.6837 22.1519Z" fill="#262626"/>
<path fill-rule="evenodd" clip-rule="evenodd" d="M22.8847 6.55103L22.5145 6.75363L23.9281 8.40829L25.0051 9.04988L22.8847 6.55103ZM28.8755 14.1826L34.0922 20.2947V19.6531L29.9525 14.8242L28.8755 14.1826ZM36.6837 22.6584V23.3L41.8668 29.3784L42.2371 29.1757L36.6837 22.6584Z" fill="#262626"/>
<path fill-rule="evenodd" clip-rule="evenodd" d="M22.5819 6.71985L22.2117 6.92246L23.0531 7.90175L24.1637 8.54334L22.5819 6.71985ZM28.0005 13.7099L34.0923 20.8012V20.1596L29.0775 14.3177L28.0005 13.7099ZM36.6838 23.1986V23.8404L41.564 29.5472L41.9341 29.3445L36.6838 23.1986Z" fill="#262626"/>
<path fill-rule="evenodd" clip-rule="evenodd" d="M22.2789 6.85492L21.875 7.05754L22.1779 7.42899L23.2886 8.03682L22.2789 6.85492ZM27.1254 13.2033L34.0922 21.3414V20.6662L28.236 13.8112L27.1254 13.2033ZM36.6837 23.7052V24.3468L41.2609 29.7497L41.6312 29.5134L36.6837 23.7052Z" fill="#262626"/>
<path fill-rule="evenodd" clip-rule="evenodd" d="M21.9761 7.0238L21.7405 7.15887L22.4136 7.53033L21.9761 7.0238ZM26.2504 12.6969L34.0923 21.848V21.2064L27.3611 13.3384L26.2504 12.6969ZM36.6838 24.2118V24.8872L40.9918 29.9186L41.3621 29.6823L36.6838 24.2118Z" fill="#262626"/>
<path fill-rule="evenodd" clip-rule="evenodd" d="M25.4089 12.1903L34.0922 22.3546V21.713L26.4859 12.8319L25.4089 12.1903ZM36.6837 24.752V25.3937L40.6889 30.0874L41.059 29.8511L36.6837 24.752Z" fill="#262626"/>
<path fill-rule="evenodd" clip-rule="evenodd" d="M24.5339 11.7176L34.0923 22.8948V22.2194L25.6109 12.3254L24.5339 11.7176ZM36.6838 25.2586V25.9002L40.386 30.2563L40.7563 30.02L36.6838 25.2586Z" fill="#262626"/>
<path fill-rule="evenodd" clip-rule="evenodd" d="M23.6588 11.2111L34.0922 23.4014V22.7598L24.7358 11.8189L23.6588 11.2111ZM36.6837 25.7651V26.4406L40.0831 30.4252L40.4532 30.2225L36.6837 25.7651Z" fill="#262626"/>
<path fill-rule="evenodd" clip-rule="evenodd" d="M22.7838 10.7045L34.0923 23.9079V23.2663L23.8608 11.3461L22.7838 10.7045ZM36.6838 26.3053V26.9471L39.7802 30.594L40.1503 30.3913L36.6838 26.3053Z" fill="#262626"/>
<path fill-rule="evenodd" clip-rule="evenodd" d="M21.9087 10.198L34.0922 24.4482V23.8066L22.9857 10.8396L21.9087 10.198ZM36.6837 26.8119V27.4535L39.5109 30.7629L39.881 30.5602L36.6837 26.8119Z" fill="#262626"/>
<path fill-rule="evenodd" clip-rule="evenodd" d="M21.0337 9.72522L34.0923 24.9547V24.3131L22.1443 10.3331L21.0337 9.72522ZM36.6838 27.3185V27.9939L39.2079 30.9317L39.5782 30.729L36.6838 27.3185Z" fill="#262626"/>
<path fill-rule="evenodd" clip-rule="evenodd" d="M21 9.69147V10.1642L34.0922 25.4613V24.8197L21.2692 9.82653L21 9.69147ZM36.6837 27.8587V28.2639C36.6837 28.3314 36.6501 28.3991 36.6164 28.4328L38.9051 31.1006L39.2752 30.8979L36.6837 27.8587Z" fill="#262626"/>
<path fill-rule="evenodd" clip-rule="evenodd" d="M21 10.0291V10.7045L34.0922 26.0015V25.3599L21 10.0291ZM36.6501 28.3653C36.6164 28.5003 36.5155 28.6355 36.4145 28.6691L36.3808 28.703L38.6021 31.2694L38.9724 31.0667L36.6501 28.3653Z" fill="#262626"/>
<path fill-rule="evenodd" clip-rule="evenodd" d="M21 10.5695V11.2111L34.0922 26.5081V25.8665L21 10.5695ZM36.4481 28.6355C36.4481 28.6692 36.4481 28.6692 36.4145 28.6692L36.078 28.8718L38.2993 31.4381L38.6694 31.2356L36.4481 28.6355Z" fill="#262626"/>
<path fill-rule="evenodd" clip-rule="evenodd" d="M21 11.0759V11.7175L34.0922 27.0146V26.373L21 11.0759ZM36.1789 28.8043L35.7751 29.0406L38.0301 31.6408L38.4002 31.4044L36.1789 28.8043Z" fill="#262626"/>
<path fill-rule="evenodd" clip-rule="evenodd" d="M21 11.6163V12.2579L34.0922 27.5549V26.9133L21 11.6163ZM35.876 28.9732L35.6404 29.1082C35.5731 29.142 35.5058 29.142 35.4385 29.142L37.7271 31.8097L38.0974 31.5733L35.876 28.9732Z" fill="#262626"/>
<path fill-rule="evenodd" clip-rule="evenodd" d="M21 12.1228V12.7644L34.0922 28.0614V27.4198L21 12.1228ZM34.8327 28.9732L37.4242 31.9785L37.7944 31.7422L35.5395 29.142C35.5058 29.142 35.4385 29.1757 35.4048 29.1757H35.3712C35.2702 29.1757 35.2029 29.142 35.1356 29.1082L34.8327 28.9732Z" fill="#262626"/>
<path fill-rule="evenodd" clip-rule="evenodd" d="M21 12.6293V13.3046L37.1213 32.1473L37.4915 31.911L35.0683 29.0743L34.3278 28.6691C34.1932 28.6016 34.0922 28.4327 34.0922 28.2639V27.9262L21 12.6293Z" fill="#262626"/>
<path fill-rule="evenodd" clip-rule="evenodd" d="M21 13.1696V13.8112L36.8183 32.3162L37.1886 32.1135L21 13.1696Z" fill="#262626"/>
<path fill-rule="evenodd" clip-rule="evenodd" d="M21 13.6761V14.3177L36.5155 32.4851L36.8857 32.2824L21 13.6761Z" fill="#262626"/>
<path fill-rule="evenodd" clip-rule="evenodd" d="M21 14.1826V14.858L36.2462 32.6539L36.6164 32.4512L21 14.1826Z" fill="#262626"/>
<path fill-rule="evenodd" clip-rule="evenodd" d="M21 14.7229V15.3645L35.9433 32.8228L36.3135 32.6201L21 14.7229Z" fill="#262626"/>
<path fill-rule="evenodd" clip-rule="evenodd" d="M21 15.2294V15.871L35.6068 32.9578C35.7077 32.924 35.8087 32.8903 35.9097 32.8565L36.0106 32.7889L21 15.2294Z" fill="#262626"/>
<path fill-rule="evenodd" clip-rule="evenodd" d="M21 15.736V16.4113L35.1692 32.9578C35.2366 32.9578 35.3039 32.9578 35.3712 32.9578C35.4721 32.9578 35.5731 32.9578 35.6741 32.924L21 15.736Z" fill="#262626"/>
<path fill-rule="evenodd" clip-rule="evenodd" d="M21 16.2762V16.9178L34.3951 32.5862L34.8663 32.8564C34.9673 32.9239 35.1356 32.9578 35.2702 32.9578L21 16.2762Z" fill="#262626"/>
<path fill-rule="evenodd" clip-rule="evenodd" d="M21 16.7828V17.4243L33.5201 32.0799L34.6307 32.7214L21 16.7828Z" fill="#262626"/>
<path fill-rule="evenodd" clip-rule="evenodd" d="M21 17.323V17.9647L32.645 31.5733L33.7557 32.2149L21 17.323Z" fill="#262626"/>
<path fill-rule="evenodd" clip-rule="evenodd" d="M21 17.8296V18.4711L31.7699 31.0667L32.8469 31.7083L21 17.8296Z" fill="#262626"/>
<path fill-rule="evenodd" clip-rule="evenodd" d="M21 18.3361V18.9777L30.8949 30.5602L31.9719 31.2018L21 18.3361Z" fill="#262626"/>
<path fill-rule="evenodd" clip-rule="evenodd" d="M21 18.8765V19.5181L29.9862 30.0199L31.0968 30.6615L21 18.8765Z" fill="#262626"/>
<path fill-rule="evenodd" clip-rule="evenodd" d="M21 19.3829V20.0245L29.1111 29.5134L30.2218 30.155L21 19.3829Z" fill="#262626"/>
<path fill-rule="evenodd" clip-rule="evenodd" d="M21 19.8895V20.531L28.2361 29.0068L29.3467 29.6484L21 19.8895Z" fill="#262626"/>
<path fill-rule="evenodd" clip-rule="evenodd" d="M21 20.4298V21.0714L27.361 28.5003L28.4717 29.142L21 20.4298Z" fill="#262626"/>
<path fill-rule="evenodd" clip-rule="evenodd" d="M21 20.9362V21.5778L26.4859 27.9939L27.5966 28.6355L21 20.9362Z" fill="#262626"/>
<path fill-rule="evenodd" clip-rule="evenodd" d="M21 21.4428V22.1182L25.6109 27.4873L26.6879 28.1289L21 21.4428Z" fill="#262626"/>
<path fill-rule="evenodd" clip-rule="evenodd" d="M21 21.983V22.6246L24.7022 26.9808L25.8128 27.6223L21 21.983Z" fill="#262626"/>
<path fill-rule="evenodd" clip-rule="evenodd" d="M21 22.4896V23.1312L23.8271 26.4742L24.9378 27.0821L21 22.4896Z" fill="#262626"/>
<path fill-rule="evenodd" clip-rule="evenodd" d="M21 22.9962V23.6716L22.9521 25.934L24.0627 26.5756L21 22.9962Z" fill="#262626"/>
<path fill-rule="evenodd" clip-rule="evenodd" d="M21 23.5364V24.178L22.077 25.4274L23.1876 26.069L21 23.5364Z" fill="#262626"/>
<path fill-rule="evenodd" clip-rule="evenodd" d="M21 24.0429V24.2118C21 24.5495 21.2358 24.9547 21.5053 25.1236L22.3139 25.5624L21 24.0429Z" fill="#262626"/>
<path fill-rule="evenodd" clip-rule="evenodd" d="M21.2021 24.8197C21.2697 24.8873 21.3035 24.9552 21.3711 24.989L21.2021 24.8197Z" fill="#262626"/>
</svg>
