<svg width="113" height="32" viewBox="0 0 113 32" fill="none" xmlns="http://www.w3.org/2000/svg">
<g clip-path="url(#clip0_492_2)">
<mask id="mask0_492_2" style="mask-type:luminance" maskUnits="userSpaceOnUse" x="0" y="0" width="25" height="32">
<path d="M24.568 0H0V32H24.568V0Z" fill="white"/>
</mask>
<g mask="url(#mask0_492_2)">
<path d="M4.05525 10.2018L4.49083 5.07677L7.25086 8.14933C7.9617 7.83824 8.7004 7.59536 9.4571 7.42394L2.78993 0L1.67395 13.1133C2.3095 12.0235 3.1132 11.0409 4.05525 10.2018Z" fill="white"/>
<path d="M20.0843 5.07751L20.5276 10.2964C21.4699 11.1509 22.2745 12.146 22.9128 13.2464L21.7867 0.000366211L15.109 7.43591C15.8614 7.61235 16.5952 7.86032 17.3004 8.17649L20.0843 5.07751Z" fill="white"/>
<path d="M9.52935 21.0349C7.33942 18.844 3.88499 18.3223 0.00796808 19.2093C0.00652494 19.2674 0 19.3232 0 19.3812L11.3003 30.7942C12.2654 26.8209 11.7642 23.2701 9.52935 21.0349Z" fill="white"/>
<path d="M24.5589 19.2333C20.6391 18.3122 17.1418 18.8237 14.9317 21.0349C12.6802 23.2864 12.1854 26.8719 13.1792 30.8822L24.568 19.3808C24.568 19.3312 24.56 19.2833 24.5589 19.2333Z" fill="white"/>
<path d="M9.77427 22.2402C9.7744 22.4625 9.70858 22.6799 9.58516 22.8648C9.46174 23.0497 9.2863 23.1938 9.08094 23.279C8.87564 23.3642 8.64963 23.3866 8.43159 23.3433C8.21355 23.3 8.01321 23.1931 7.85597 23.0359C7.69867 22.8788 7.59156 22.6786 7.54808 22.4606C7.50459 22.2426 7.52674 22.0166 7.6117 21.8112C7.69666 21.6058 7.84066 21.4302 8.02544 21.3066C8.21023 21.183 8.42745 21.1169 8.64976 21.1168C8.9478 21.1169 9.2336 21.2353 9.44442 21.4459C9.65525 21.6565 9.7739 21.9422 9.77427 22.2402Z" fill="black"/>
<path d="M16.9566 22.2402C16.9567 22.4626 16.8909 22.6799 16.7675 22.8649C16.6441 23.0499 16.4686 23.1941 16.2632 23.2793C16.0578 23.3645 15.8318 23.3868 15.6137 23.3436C15.3956 23.3003 15.1953 23.1934 15.038 23.0362C14.8807 22.8791 14.7735 22.6788 14.7301 22.4608C14.6866 22.2427 14.7087 22.0166 14.7938 21.8112C14.8788 21.6057 15.0228 21.4301 15.2076 21.3065C15.3924 21.1829 15.6098 21.1169 15.8321 21.1168C16.1302 21.1168 16.416 21.2351 16.6269 21.4457C16.8378 21.6564 16.9563 21.9422 16.9566 22.2402Z" fill="black"/>
<path d="M13.3526 30.8769C13.3526 31.0992 13.2866 31.3164 13.163 31.5012C13.0394 31.686 12.8638 31.83 12.6584 31.915C12.453 31.9999 12.2271 32.0221 12.009 31.9787C11.791 31.9352 11.5908 31.8281 11.4337 31.6709C11.2765 31.5136 11.1696 31.3133 11.1263 31.0953C11.083 30.8773 11.1053 30.6513 11.1904 30.446C11.2755 30.2407 11.4197 30.0652 11.6045 29.9417C11.7894 29.8183 12.0066 29.7524 12.2289 29.7524C12.527 29.7526 12.8129 29.8712 13.0236 30.082C13.2343 30.2929 13.3527 30.5788 13.3526 30.8769Z" fill="black"/>
</g>
<mask id="mask1_492_2" style="mask-type:luminance" maskUnits="userSpaceOnUse" x="30" y="4" width="83" height="12">
<path d="M113 4H30V16H113V4Z" fill="white"/>
</mask>
<g mask="url(#mask1_492_2)">
<path d="M38.098 6.75065H33.5158V8.74965H37.848V11.2165H33.5158V15.8331H30V4.16675H38.5147L38.098 6.75065Z" fill="white"/>
<path d="M46.1793 15.9999C43.6965 15.9999 41.0137 15.1668 41.0137 10.0004C41.0137 4.7504 43.8799 4 46.1793 4C48.6122 4 51.3449 4.9006 51.3449 10.0004C51.3449 15.3835 48.4459 15.9999 46.1793 15.9999ZM46.1793 6.4171C44.8796 6.4171 44.5133 7.4664 44.5133 10.0004C44.5133 12.5002 44.863 13.5833 46.1793 13.5833C47.429 13.5833 47.8457 12.6832 47.8457 10.0004C47.8457 7.5672 47.5126 6.4171 46.1793 6.4171Z" fill="white"/>
<path d="M60.0273 15.8335L58.6773 12.167L57.3107 15.8335H53.2617L56.3945 10.017L53.4285 4.16724H57.5278L58.6773 8.01764L59.8272 4.16724H63.9261L60.9767 10.017L64.0929 15.8335H60.0273Z" fill="white"/>
<path d="M70.5135 12.5998V15.8335H67.0146V4.16699H70.8802C73.6129 4.16699 76.3453 4.58379 76.3453 8.15089C76.3453 11.5 74.0963 12.5332 70.5135 12.5998ZM70.9468 6.634H70.5135V10.2834C72.4303 10.1503 72.8465 9.6499 72.8465 8.217C72.8465 6.9339 72.2967 6.634 70.9468 6.634Z" fill="white"/>
<path d="M84.0059 15.9999C81.5222 15.9999 78.8398 15.1668 78.8398 10.0004C78.8398 4.7504 81.7061 4 84.0059 4C86.4379 4 89.1706 4.9006 89.1706 10.0004C89.1706 15.3835 86.2716 15.9999 84.0059 15.9999ZM84.0059 6.4171C82.7059 6.4171 82.339 7.4664 82.339 10.0004C82.339 12.5002 82.6892 13.5833 84.0059 13.5833C85.2552 13.5833 85.6719 12.6832 85.6719 10.0004C85.6719 7.5672 85.3384 6.4171 84.0059 6.4171Z" fill="white"/>
<path d="M95.9529 15.9999C94.6791 15.9588 93.4172 15.74 92.2038 15.3498V12.7003C92.2038 12.7003 94.6371 13.3994 95.6194 13.3994C96.6529 13.3994 97.2525 13.2497 97.2525 12.5829C97.2525 11.9499 96.7864 11.6999 96.1368 11.4832L95.4027 11.2332C93.9368 10.7333 92.0869 10.1668 92.0869 7.48351C92.0869 4.63401 94.6529 4.00002 96.803 4.00002C98.0082 3.97702 99.2033 4.22211 100.302 4.71761V7.30012C100.302 7.30012 98.3188 6.56722 97.0525 6.56722C96.1862 6.56722 95.5533 6.66662 95.5533 7.36712C95.5533 7.96642 96.0361 8.16691 96.7194 8.38361L97.5025 8.63361C98.9689 9.10031 100.752 9.76712 100.752 12.3001C100.752 15.6663 98.2357 15.9999 95.9529 15.9999Z" fill="white"/>
<path d="M112.583 6.83384H109.75V15.8335H106.251V6.83384H103.002V4.16724H113L112.583 6.83384Z" fill="white"/>
</g>
<path d="M56.5057 26V20.1818H58.8011C59.2424 20.1818 59.6184 20.2661 59.929 20.4347C60.2396 20.6013 60.4763 20.8333 60.6392 21.1307C60.804 21.4261 60.8864 21.767 60.8864 22.1534C60.8864 22.5398 60.803 22.8807 60.6364 23.1761C60.4697 23.4716 60.2282 23.7017 59.9119 23.8665C59.5975 24.0312 59.2169 24.1136 58.7699 24.1136H57.3068V23.1278H58.571C58.8078 23.1278 59.0028 23.0871 59.1562 23.0057C59.3116 22.9223 59.4271 22.8078 59.5028 22.6619C59.5805 22.5142 59.6193 22.3447 59.6193 22.1534C59.6193 21.9602 59.5805 21.7917 59.5028 21.6477C59.4271 21.5019 59.3116 21.3892 59.1562 21.3097C59.0009 21.2282 58.804 21.1875 58.5653 21.1875H57.7358V26H56.5057ZM62.7898 26.0824C62.5114 26.0824 62.2633 26.0341 62.0455 25.9375C61.8277 25.839 61.6553 25.6941 61.5284 25.5028C61.4034 25.3097 61.3409 25.0691 61.3409 24.7812C61.3409 24.5388 61.3854 24.3352 61.4744 24.1705C61.5634 24.0057 61.6847 23.8731 61.8381 23.7727C61.9915 23.6723 62.1657 23.5966 62.3608 23.5455C62.5578 23.4943 62.7642 23.4583 62.9801 23.4375C63.2339 23.411 63.4384 23.3864 63.5938 23.3636C63.7491 23.339 63.8617 23.303 63.9318 23.2557C64.0019 23.2083 64.0369 23.1383 64.0369 23.0455V23.0284C64.0369 22.8485 63.9801 22.7093 63.8665 22.6108C63.7547 22.5123 63.5956 22.4631 63.3892 22.4631C63.1714 22.4631 62.9981 22.5114 62.8693 22.608C62.7405 22.7027 62.6553 22.822 62.6136 22.9659L61.4943 22.875C61.5511 22.6098 61.6629 22.3807 61.8295 22.1875C61.9962 21.9924 62.2112 21.8428 62.4744 21.7386C62.7396 21.6326 63.0464 21.5795 63.3949 21.5795C63.6373 21.5795 63.8693 21.608 64.0909 21.6648C64.3144 21.7216 64.5123 21.8097 64.6847 21.929C64.8589 22.0483 64.9962 22.2017 65.0966 22.3892C65.197 22.5748 65.2472 22.7973 65.2472 23.0568V26H64.0994V25.3949H64.0653C63.9953 25.5312 63.9015 25.6515 63.7841 25.7557C63.6667 25.858 63.5256 25.9384 63.3608 25.9972C63.196 26.054 63.0057 26.0824 62.7898 26.0824ZM63.1364 25.2472C63.3144 25.2472 63.4716 25.2121 63.608 25.142C63.7443 25.0701 63.8513 24.9735 63.929 24.8523C64.0066 24.7311 64.0455 24.5937 64.0455 24.4403V23.9773C64.0076 24.0019 63.9555 24.0246 63.8892 24.0455C63.8248 24.0644 63.7519 24.0824 63.6705 24.0994C63.589 24.1146 63.5076 24.1288 63.4261 24.142C63.3447 24.1534 63.2708 24.1638 63.2045 24.1733C63.0625 24.1941 62.9384 24.2273 62.8324 24.2727C62.7263 24.3182 62.6439 24.3797 62.5852 24.4574C62.5265 24.5331 62.4972 24.6278 62.4972 24.7415C62.4972 24.9062 62.5568 25.0322 62.6761 25.1193C62.7973 25.2045 62.9508 25.2472 63.1364 25.2472ZM68.1577 26.0852C67.7107 26.0852 67.3262 25.9905 67.0043 25.8011C66.6842 25.6098 66.438 25.3447 66.2656 25.0057C66.0952 24.6667 66.0099 24.2765 66.0099 23.8352C66.0099 23.3883 66.0961 22.9962 66.2685 22.6591C66.4427 22.3201 66.6899 22.0559 67.0099 21.8665C67.33 21.6752 67.7107 21.5795 68.152 21.5795C68.5327 21.5795 68.866 21.6487 69.152 21.7869C69.438 21.9252 69.6643 22.1193 69.831 22.3693C69.9976 22.6193 70.0895 22.9129 70.1065 23.25H68.9645C68.9323 23.0322 68.8471 22.857 68.7088 22.7244C68.5724 22.59 68.3935 22.5227 68.1719 22.5227C67.9844 22.5227 67.8205 22.5739 67.6804 22.6761C67.5421 22.7765 67.4342 22.9233 67.3565 23.1165C67.2789 23.3097 67.2401 23.5436 67.2401 23.8182C67.2401 24.0966 67.2779 24.3333 67.3537 24.5284C67.4313 24.7235 67.5402 24.8722 67.6804 24.9744C67.8205 25.0767 67.9844 25.1278 68.1719 25.1278C68.3101 25.1278 68.4342 25.0994 68.544 25.0426C68.6558 24.9858 68.7476 24.9034 68.8196 24.7955C68.8935 24.6856 68.9418 24.554 68.9645 24.4006H70.1065C70.0876 24.7339 69.9967 25.0275 69.8338 25.2812C69.6728 25.5331 69.4503 25.7301 69.1662 25.8722C68.8821 26.0142 68.5459 26.0852 68.1577 26.0852ZM71.978 24.7443L71.9808 23.2926H72.157L73.5547 21.6364H74.9439L73.0661 23.8295H72.7791L71.978 24.7443ZM70.8814 26V20.1818H72.0916V26H70.8814ZM73.6087 26L72.3246 24.0994L73.1314 23.2443L75.0263 26H73.6087ZM77.3466 26.0852C76.8977 26.0852 76.5114 25.9943 76.1875 25.8125C75.8655 25.6288 75.6174 25.3693 75.4432 25.0341C75.2689 24.697 75.1818 24.2983 75.1818 23.8381C75.1818 23.3892 75.2689 22.9953 75.4432 22.6562C75.6174 22.3172 75.8627 22.053 76.179 21.8636C76.4972 21.6742 76.8703 21.5795 77.2983 21.5795C77.5862 21.5795 77.8542 21.6259 78.1023 21.7188C78.3523 21.8097 78.5701 21.947 78.7557 22.1307C78.9432 22.3144 79.089 22.5455 79.1932 22.8239C79.2973 23.1004 79.3494 23.4242 79.3494 23.7955V24.1278H75.6648V23.3778H78.2102C78.2102 23.2036 78.1723 23.0492 78.0966 22.9148C78.0208 22.7803 77.9157 22.6752 77.7812 22.5994C77.6487 22.5218 77.4943 22.483 77.3182 22.483C77.1345 22.483 76.9716 22.5256 76.8295 22.6108C76.6894 22.6941 76.5795 22.8068 76.5 22.9489C76.4205 23.089 76.3797 23.2453 76.3778 23.4176V24.1307C76.3778 24.3466 76.4176 24.5331 76.4972 24.6903C76.5786 24.8475 76.6932 24.9688 76.8409 25.054C76.9886 25.1392 77.1638 25.1818 77.3665 25.1818C77.5009 25.1818 77.6241 25.1629 77.7358 25.125C77.8475 25.0871 77.9432 25.0303 78.0227 24.9545C78.1023 24.8788 78.1629 24.786 78.2045 24.6761L79.3239 24.75C79.267 25.0189 79.1506 25.2538 78.9744 25.4545C78.8002 25.6534 78.5748 25.8087 78.2983 25.9205C78.0237 26.0303 77.7064 26.0852 77.3466 26.0852ZM82.4602 21.6364V22.5455H79.8324V21.6364H82.4602ZM80.429 20.5909H81.6392V24.6591C81.6392 24.7708 81.6563 24.858 81.6903 24.9205C81.7244 24.9811 81.7718 25.0237 81.8324 25.0483C81.8949 25.0729 81.9669 25.0852 82.0483 25.0852C82.1051 25.0852 82.1619 25.0805 82.2188 25.071C82.2756 25.0597 82.3191 25.0511 82.3494 25.0455L82.5398 25.946C82.4792 25.965 82.3939 25.9867 82.2841 26.0114C82.1742 26.0379 82.0407 26.054 81.8835 26.0597C81.5919 26.071 81.3362 26.0322 81.1165 25.9432C80.8987 25.8542 80.7292 25.7159 80.608 25.5284C80.4867 25.3409 80.4271 25.1042 80.429 24.8182V20.5909ZM84.4929 26.0824C84.2145 26.0824 83.9664 26.0341 83.7486 25.9375C83.5308 25.839 83.3584 25.6941 83.2315 25.5028C83.1065 25.3097 83.044 25.0691 83.044 24.7812C83.044 24.5388 83.0885 24.3352 83.1776 24.1705C83.2666 24.0057 83.3878 23.8731 83.5412 23.7727C83.6946 23.6723 83.8688 23.5966 84.0639 23.5455C84.2609 23.4943 84.4673 23.4583 84.6832 23.4375C84.937 23.411 85.1416 23.3864 85.2969 23.3636C85.4522 23.339 85.5649 23.303 85.6349 23.2557C85.705 23.2083 85.7401 23.1383 85.7401 23.0455V23.0284C85.7401 22.8485 85.6832 22.7093 85.5696 22.6108C85.4579 22.5123 85.2988 22.4631 85.0923 22.4631C84.8745 22.4631 84.7012 22.5114 84.5724 22.608C84.4437 22.7027 84.3584 22.822 84.3168 22.9659L83.1974 22.875C83.2543 22.6098 83.366 22.3807 83.5327 22.1875C83.6993 21.9924 83.9143 21.8428 84.1776 21.7386C84.4427 21.6326 84.7495 21.5795 85.098 21.5795C85.3404 21.5795 85.5724 21.608 85.794 21.6648C86.0175 21.7216 86.2154 21.8097 86.3878 21.929C86.562 22.0483 86.6993 22.2017 86.7997 22.3892C86.9001 22.5748 86.9503 22.7973 86.9503 23.0568V26H85.8026V25.3949H85.7685C85.6984 25.5312 85.6046 25.6515 85.4872 25.7557C85.3698 25.858 85.2287 25.9384 85.0639 25.9972C84.8991 26.054 84.7088 26.0824 84.4929 26.0824ZM84.8395 25.2472C85.0175 25.2472 85.1747 25.2121 85.3111 25.142C85.4474 25.0701 85.5545 24.9735 85.6321 24.8523C85.7098 24.7311 85.7486 24.5937 85.7486 24.4403V23.9773C85.7107 24.0019 85.6586 24.0246 85.5923 24.0455C85.5279 24.0644 85.455 24.0824 85.3736 24.0994C85.2921 24.1146 85.2107 24.1288 85.1293 24.142C85.0478 24.1534 84.974 24.1638 84.9077 24.1733C84.7656 24.1941 84.6416 24.2273 84.5355 24.2727C84.4295 24.3182 84.3471 24.3797 84.2884 24.4574C84.2296 24.5331 84.2003 24.6278 84.2003 24.7415C84.2003 24.9062 84.2599 25.0322 84.3793 25.1193C84.5005 25.2045 84.6539 25.2472 84.8395 25.2472ZM94.3381 22C94.2756 21.8087 94.1932 21.6373 94.0909 21.4858C93.9905 21.3324 93.8703 21.2017 93.7301 21.0938C93.5919 20.9858 93.4347 20.9034 93.2585 20.8466C93.0824 20.7898 92.8892 20.7614 92.679 20.7614C92.3343 20.7614 92.0208 20.8504 91.7386 21.0284C91.4564 21.2064 91.232 21.4688 91.0653 21.8153C90.8987 22.1619 90.8153 22.5871 90.8153 23.0909C90.8153 23.5947 90.8996 24.0199 91.0682 24.3665C91.2367 24.7131 91.465 24.9754 91.7528 25.1534C92.0407 25.3314 92.3646 25.4205 92.7244 25.4205C93.0578 25.4205 93.3513 25.3494 93.6051 25.2074C93.8608 25.0634 94.0597 24.8608 94.2017 24.5994C94.3456 24.3362 94.4176 24.0265 94.4176 23.6705L94.6335 23.7159H92.8835V23.0909H95.0994V23.7159C95.0994 24.1951 94.9972 24.6117 94.7926 24.9659C94.59 25.3201 94.3097 25.5947 93.9517 25.7898C93.5956 25.983 93.1866 26.0795 92.7244 26.0795C92.2093 26.0795 91.7566 25.9583 91.3665 25.7159C90.9782 25.4735 90.6752 25.1288 90.4574 24.6818C90.2415 24.2348 90.1335 23.7045 90.1335 23.0909C90.1335 22.6307 90.1951 22.2169 90.3182 21.8494C90.4432 21.4801 90.6193 21.1657 90.8466 20.9062C91.0739 20.6468 91.3428 20.4479 91.6534 20.3097C91.964 20.1714 92.3059 20.1023 92.679 20.1023C92.9858 20.1023 93.2718 20.1487 93.5369 20.2415C93.804 20.3324 94.0417 20.4621 94.25 20.6307C94.4602 20.7973 94.6354 20.9972 94.7756 21.2301C94.9157 21.4612 95.0123 21.7178 95.0653 22H94.3381ZM96.2152 26V21.6364H96.8629V22.2955H96.9084C96.9879 22.0795 97.1319 21.9044 97.3402 21.7699C97.5485 21.6354 97.7834 21.5682 98.0447 21.5682C98.094 21.5682 98.1555 21.5691 98.2294 21.571C98.3033 21.5729 98.3591 21.5758 98.397 21.5795V22.2614C98.3743 22.2557 98.3222 22.2472 98.2408 22.2358C98.1612 22.2225 98.0769 22.2159 97.9879 22.2159C97.7758 22.2159 97.5864 22.2604 97.4197 22.3494C97.255 22.4366 97.1243 22.5578 97.0277 22.7131C96.933 22.8665 96.8857 23.0417 96.8857 23.2386V26H96.2152ZM100.832 26.0909C100.438 26.0909 100.092 25.9972 99.7947 25.8097C99.4993 25.6222 99.2682 25.3598 99.1016 25.0227C98.9368 24.6856 98.8544 24.2917 98.8544 23.8409C98.8544 23.3864 98.9368 22.9896 99.1016 22.6506C99.2682 22.3116 99.4993 22.0483 99.7947 21.8608C100.092 21.6733 100.438 21.5795 100.832 21.5795C101.226 21.5795 101.57 21.6733 101.866 21.8608C102.163 22.0483 102.394 22.3116 102.559 22.6506C102.726 22.9896 102.809 23.3864 102.809 23.8409C102.809 24.2917 102.726 24.6856 102.559 25.0227C102.394 25.3598 102.163 25.6222 101.866 25.8097C101.57 25.9972 101.226 26.0909 100.832 26.0909ZM100.832 25.4886C101.131 25.4886 101.377 25.4119 101.57 25.2585C101.763 25.1051 101.906 24.9034 101.999 24.6534C102.092 24.4034 102.138 24.1326 102.138 23.8409C102.138 23.5492 102.092 23.2775 101.999 23.0256C101.906 22.7737 101.763 22.5701 101.57 22.4148C101.377 22.2595 101.131 22.1818 100.832 22.1818C100.532 22.1818 100.286 22.2595 100.093 22.4148C99.8999 22.5701 99.7569 22.7737 99.6641 23.0256C99.5713 23.2775 99.5249 23.5492 99.5249 23.8409C99.5249 24.1326 99.5713 24.4034 99.6641 24.6534C99.7569 24.9034 99.8999 25.1051 100.093 25.2585C100.286 25.4119 100.532 25.4886 100.832 25.4886ZM106.582 24.2159V21.6364H107.253V26H106.582V25.2614H106.537C106.435 25.483 106.276 25.6714 106.06 25.8267C105.844 25.9801 105.571 26.0568 105.241 26.0568C104.969 26.0568 104.726 25.9972 104.514 25.8778C104.302 25.7566 104.135 25.5748 104.014 25.3324C103.893 25.0881 103.832 24.7803 103.832 24.4091V21.6364H104.503V24.3636C104.503 24.6818 104.592 24.9356 104.77 25.125C104.95 25.3144 105.179 25.4091 105.457 25.4091C105.624 25.4091 105.794 25.3665 105.966 25.2812C106.14 25.196 106.286 25.0653 106.403 24.8892C106.523 24.7131 106.582 24.4886 106.582 24.2159ZM108.481 27.6364V21.6364H109.129V22.3295H109.208C109.257 22.2538 109.326 22.1572 109.413 22.0398C109.502 21.9205 109.629 21.8144 109.793 21.7216C109.96 21.6269 110.185 21.5795 110.469 21.5795C110.837 21.5795 111.161 21.6714 111.441 21.8551C111.721 22.0388 111.94 22.2992 112.097 22.6364C112.254 22.9735 112.333 23.3712 112.333 23.8295C112.333 24.2917 112.254 24.6922 112.097 25.0312C111.94 25.3684 111.722 25.6297 111.444 25.8153C111.165 25.9991 110.844 26.0909 110.481 26.0909C110.201 26.0909 109.976 26.0445 109.808 25.9517C109.639 25.857 109.509 25.75 109.418 25.6307C109.327 25.5095 109.257 25.4091 109.208 25.3295H109.151V27.6364H108.481ZM109.14 23.8182C109.14 24.1477 109.188 24.4384 109.285 24.6903C109.381 24.9403 109.522 25.1364 109.708 25.2784C109.894 25.4186 110.121 25.4886 110.39 25.4886C110.67 25.4886 110.904 25.4148 111.092 25.267C111.281 25.1174 111.423 24.9167 111.518 24.6648C111.614 24.411 111.663 24.1288 111.663 23.8182C111.663 23.5114 111.615 23.2348 111.521 22.9886C111.428 22.7405 111.287 22.5445 111.097 22.4006C110.91 22.2547 110.674 22.1818 110.39 22.1818C110.117 22.1818 109.888 22.2509 109.702 22.3892C109.517 22.5256 109.377 22.7169 109.282 22.9631C109.187 23.2074 109.14 23.4924 109.14 23.8182Z" fill="white"/>
</g>
<defs>
<clipPath id="clip0_492_2">
<rect width="113" height="32" fill="white"/>
</clipPath>
</defs>
</svg>
