<svg width="120" height="33" viewBox="0 0 120 33" fill="none" xmlns="http://www.w3.org/2000/svg">
<g clip-path="url(#clip0_2_794)">
<mask id="mask0_2_794" style="mask-type:luminance" maskUnits="userSpaceOnUse" x="0" y="8" width="121" height="18">
<path d="M120.667 8H0V25.4458H120.667V8Z" fill="white"/>
</mask>
<g mask="url(#mask0_2_794)">
<path d="M11.773 11.9989H5.11132V14.9051H11.4095V18.4915H5.11132V25.2032H0V8.24241H12.3788L11.773 11.9989Z" fill="#262626"/>
<path d="M23.5216 25.4456C19.9121 25.4456 16.0118 24.2345 16.0118 16.7235C16.0118 9.09094 20.1787 8 23.5216 8C27.0586 8 31.0314 9.30931 31.0314 16.7235C31.0314 24.5495 26.8168 25.4456 23.5216 25.4456ZM23.5216 11.514C21.6321 11.514 21.0996 13.0395 21.0996 16.7235C21.0996 20.3577 21.6079 21.9323 23.5216 21.9323C25.3384 21.9323 25.9442 20.6238 25.9442 16.7235C25.9442 13.186 25.46 11.514 23.5216 11.514Z" fill="#262626"/>
<path d="M43.6542 25.2038L41.6915 19.8734L39.7047 25.2038H33.8182L38.3728 16.7477L34.0607 8.24313H40.0204L41.6915 13.8409L43.3633 8.24313H49.3223L45.0344 16.7477L49.5648 25.2038H43.6542Z" fill="#262626"/>
<path d="M58.8992 20.5025V25.2038H53.8125V8.24281H59.4323C63.4052 8.24281 67.3776 8.84876 67.3776 14.0347C67.3776 18.9036 64.1079 20.4057 58.8992 20.5025ZM59.5291 11.8294H58.8991V17.1349C61.6857 16.9414 62.291 16.2139 62.291 14.1308C62.291 12.2654 61.4917 11.8294 59.5291 11.8294Z" fill="#262626"/>
<path d="M78.5146 25.4456C74.9038 25.4456 71.0041 24.2345 71.0041 16.7235C71.0041 9.09094 75.1711 8 78.5146 8C82.0503 8 86.0231 9.30931 86.0231 16.7235C86.0231 24.5495 81.8085 25.4456 78.5146 25.4456ZM78.5146 11.514C76.6247 11.514 76.0912 13.0395 76.0912 16.7235C76.0912 20.3577 76.6004 21.9323 78.5146 21.9323C80.3309 21.9323 80.9367 20.6238 80.9367 16.7235C80.9367 13.186 80.4518 11.514 78.5146 11.514Z" fill="#262626"/>
<path d="M95.8834 25.4457C94.0315 25.3859 92.1969 25.0678 90.4329 24.5005V20.6487C90.4329 20.6487 93.9704 21.665 95.3985 21.665C96.901 21.665 97.7727 21.4474 97.7727 20.478C97.7727 19.5577 97.0951 19.1943 96.1507 18.8792L95.0835 18.5158C92.9523 17.789 90.2629 16.9654 90.2629 13.0644C90.2629 8.92174 93.9934 8.00002 97.1193 8.00002C98.8714 7.96658 100.609 8.32291 102.206 9.04327V12.7978C102.206 12.7978 99.3229 11.7323 97.482 11.7323C96.2225 11.7323 95.3024 11.8768 95.3024 12.8952C95.3024 13.7664 96.0043 14.0579 96.9977 14.373L98.1362 14.7364C100.268 15.4149 102.861 16.3843 102.861 20.0668C102.861 24.9607 99.2021 25.4457 95.8834 25.4457Z" fill="#262626"/>
<path d="M120.06 12.1199H115.942V25.2038H110.855V12.1199H106.131V8.24313H120.666L120.06 12.1199Z" fill="#262626"/>
</g>
</g>
<defs>
<clipPath id="clip0_2_794">
<rect width="120" height="33" fill="white"/>
</clipPath>
</defs>
</svg>
