<svg width="120" height="33" viewBox="0 0 120 33" fill="none" xmlns="http://www.w3.org/2000/svg">
<path d="M107.943 27.2864C107.943 27.1751 107.943 27.0638 107.943 26.9636C107.955 26.9524 107.955 26.9636 107.966 26.9636C107.966 27.0749 107.966 27.1751 107.966 27.2864C107.966 27.2976 107.955 27.2976 107.943 27.2864Z" fill="white"/>
<path d="M107.966 26.9635C107.955 26.9635 107.955 26.9635 107.943 26.9635C107.943 26.8856 107.943 26.8077 107.943 26.7297C107.955 26.7297 107.955 26.7297 107.966 26.7297C107.966 26.8077 107.966 26.8856 107.966 26.9635Z" fill="white"/>
<path d="M107.943 27.2865C107.955 27.2865 107.955 27.2865 107.967 27.2865C107.967 27.3533 107.967 27.409 107.967 27.4758C107.92 27.4201 107.955 27.3533 107.943 27.2865Z" fill="white"/>
<path d="M32.6632 1.04453C34.2637 1.12247 35.8298 1.33401 37.4075 1.62348C38.2534 1.77935 39.0994 1.95749 39.9225 2.2247C40.0483 2.26923 40.174 2.3249 40.2998 2.3583C40.4141 2.3917 40.4484 2.44737 40.4484 2.56984C40.4484 5.06377 40.4484 7.56883 40.4484 10.0628C40.4484 10.2075 40.4484 10.3522 40.4484 10.5081C39.9683 10.3745 39.4995 10.2409 39.0308 10.1073C37.5332 9.69534 36.0013 9.36134 34.458 9.16093C33.0404 8.97166 31.6114 8.91599 30.1824 9.10526C28.9477 9.26113 27.7702 9.58401 26.7071 10.2298C25.3695 11.0425 24.5121 12.2115 24.0091 13.6478C23.689 14.583 23.5404 15.5516 23.5061 16.5425C23.4718 17.4221 23.5061 18.3016 23.6433 19.1812C23.8147 20.2166 24.1234 21.2075 24.7293 22.087C25.5296 23.2338 26.6613 23.8907 28.0217 24.1913C28.7648 24.3583 29.5193 24.4474 30.2739 24.3694C31.6914 24.2358 32.9375 23.7237 33.875 22.6215C33.9207 22.5769 33.955 22.5213 33.9893 22.4656C34.0007 22.4545 34.0007 22.4433 34.0007 22.4322C33.955 22.4099 33.8978 22.4211 33.8521 22.4211C32.0458 22.4211 30.2281 22.4211 28.4219 22.4211C28.2961 22.4211 28.2504 22.3988 28.2504 22.2652C28.2504 20.1053 28.2504 17.9565 28.2504 15.7966C28.2504 15.6741 28.2847 15.6407 28.4104 15.6407C33.4748 15.6407 38.5278 15.6407 43.5922 15.6407C43.718 15.6407 43.7523 15.6741 43.7523 15.7966C43.7523 21.1184 43.7523 26.4514 43.7523 31.7733C43.7523 31.8846 43.7294 31.918 43.6037 31.918C41.5573 31.918 39.511 31.918 37.4532 31.918C37.316 31.918 37.2932 31.8735 37.2932 31.751C37.3046 30.3482 37.316 28.9453 37.3274 27.5425C37.3274 27.498 37.3275 27.4423 37.3046 27.3866C37.2589 27.4646 37.2246 27.5425 37.1788 27.6204C36.5386 28.7783 35.6012 29.669 34.5037 30.3927C33.0176 31.3613 31.3828 31.9514 29.6222 32.2409C29.1078 32.3188 28.6048 32.3745 28.0789 32.3968C28.0217 32.419 27.9646 32.3968 27.9074 32.4079C27.7931 32.4079 27.6788 32.4079 27.5645 32.4079C27.4959 32.4079 27.4273 32.4079 27.3701 32.4079C27.2329 32.4079 27.0843 32.4079 26.9471 32.4079C26.8785 32.4079 26.8099 32.4079 26.7299 32.4079C25.3352 32.4079 23.9748 32.1852 22.6372 31.8067C21.8827 31.5951 21.1511 31.3168 20.4423 30.9717C19.482 30.5041 18.5903 29.914 17.7786 29.2126C16.8983 28.4443 16.0981 27.587 15.4465 26.6184C14.6919 25.5051 14.1318 24.3026 13.7317 23.0223C13.4916 22.2318 13.2972 21.419 13.1829 20.5951C13.0915 19.9939 13.0114 19.3927 13.0114 18.7804C13.0114 18.6022 13 18.4241 13 18.246C13 18.1792 13 18.1123 13 18.0344C13 17.9008 13 17.7783 13 17.6447C13 17.5 13 17.3441 13 17.1994C13 17.0769 13 16.9545 13 16.832C13 16.7652 13 16.6984 13 16.6204C13 15.0617 13.2629 13.5364 13.7202 12.0445C13.9832 11.1984 14.3147 10.3745 14.7262 9.58401C15.2636 8.54858 15.938 7.57996 16.7269 6.7004C17.6529 5.65385 18.716 4.75202 19.8935 3.98381C21.0253 3.23785 22.2485 2.65891 23.5289 2.20243C24.9579 1.69028 26.4327 1.36741 27.9417 1.17814C28.6962 1.07794 29.4622 1.01113 30.2167 1.01113C30.2739 1.01113 30.3196 1.01113 30.3768 1.01113C30.4453 1.01113 30.5139 1.01113 30.5825 1.01113C30.6626 1 30.754 1.02227 30.834 1C31.2456 1 31.6571 1 32.0687 1C32.1487 1.0334 32.2402 1.01113 32.3202 1.01113C32.3774 1.01113 32.4345 1.01113 32.4803 1.01113C32.5488 1.04453 32.606 1.02227 32.6632 1.04453Z" fill="white"/>
<path d="M80.2091 32.4191C79.3403 32.3968 78.4715 32.3523 77.6141 32.2855C76.448 32.1964 75.2933 32.0628 74.1387 31.8735C73.1327 31.7065 72.1381 31.5061 71.1664 31.2166C71.052 31.1832 71.0177 31.1387 71.0177 31.0162C71.0177 28.3553 71.0177 25.6944 71.0177 23.0334C71.0177 22.8664 71.0177 22.8664 71.1778 22.911C72.4925 23.3118 73.8415 23.6124 75.2019 23.8685C76.2422 24.0689 77.294 24.2359 78.3457 24.3695C79.1802 24.4697 80.0262 24.5365 80.8722 24.5588C81.6267 24.581 82.3812 24.5476 83.1243 24.414C83.5473 24.3361 83.9588 24.2136 84.3247 23.9798C84.8277 23.6681 85.0449 23.2005 84.942 22.666C84.8963 22.41 84.7362 22.2318 84.519 22.0982C84.1646 21.8756 83.7759 21.7531 83.3758 21.664C82.1297 21.3857 80.8836 21.1073 79.6375 20.8401C78.2657 20.5507 76.9281 20.1721 75.6477 19.582C74.2759 18.9474 73.0641 18.1013 72.161 16.8988C71.4179 15.9079 70.972 14.7946 70.7434 13.5922C70.6176 12.9353 70.5719 12.2784 70.5719 11.6104C70.5719 9.80673 70.9034 8.08102 71.8066 6.48891C72.7554 4.79661 74.1387 3.53851 75.8878 2.63669C77.1682 1.9798 78.5286 1.56786 79.9462 1.32292C80.7693 1.17818 81.6038 1.10025 82.4384 1.05571C82.4955 1.03345 82.5527 1.05571 82.5984 1.04458C82.6556 1.04458 82.7242 1.04458 82.7813 1.04458C82.8614 1.03345 82.93 1.05571 83.01 1.03345C83.3987 1.03345 83.7759 1.03345 84.1646 1.03345C84.2447 1.06685 84.3361 1.04458 84.4161 1.04458C84.4733 1.04458 84.5419 1.04458 84.599 1.04458C84.6562 1.04458 84.7019 1.04458 84.7591 1.04458C85.4908 1.04458 86.2224 1.10025 86.9426 1.17818C88.2001 1.30065 89.4577 1.45652 90.7038 1.66806C91.4926 1.80167 92.2814 1.9464 93.0702 2.13567C93.2989 2.19134 93.2989 2.20248 93.2989 2.42515C93.2989 4.93021 93.2989 7.43527 93.2989 9.94033C93.2989 9.95146 93.2989 9.9626 93.2989 9.98487C93.2989 10.1741 93.276 10.1853 93.0816 10.1407C92.1671 9.91806 91.2525 9.71766 90.3265 9.55065C89.2862 9.36138 88.2459 9.18325 87.2056 9.04964C86.4853 8.96057 85.7651 8.88264 85.0335 8.82697C84.4047 8.78244 83.7645 8.78244 83.1243 8.8047C82.4612 8.82697 81.8096 8.92717 81.2152 9.23891C80.8379 9.43932 80.5407 9.71766 80.4492 10.1407C80.3463 10.5972 80.5292 10.9758 80.9522 11.243C81.2609 11.4434 81.6038 11.5658 81.9582 11.6549C82.9871 11.911 84.016 12.1337 85.0563 12.3786C86.0052 12.6013 86.9655 12.8017 87.8915 13.1023C89.2176 13.5365 90.4866 14.0932 91.6069 14.9393C92.8073 15.8411 93.7104 16.9768 94.2363 18.3685C94.5449 19.1924 94.7279 20.0496 94.8079 20.9292C94.865 21.5972 94.8765 22.2652 94.8308 22.9332C94.6936 24.7258 94.1563 26.3847 93.0588 27.8432C92.3957 28.7339 91.584 29.4687 90.6695 30.1033C89.4005 30.9606 87.9944 31.5284 86.5082 31.9069C85.6622 32.1185 84.8048 32.2632 83.9474 32.3523C83.3529 32.4191 82.7585 32.4413 82.1754 32.4413C82.0954 32.4413 82.0154 32.4413 81.9354 32.4413C81.7753 32.4413 81.6153 32.4413 81.4552 32.4413C81.3523 32.4413 81.2494 32.4413 81.1466 32.4413C80.9408 32.4413 80.735 32.4413 80.5292 32.4413C80.4149 32.4191 80.312 32.4413 80.2091 32.4191Z" fill="white"/>
<path d="M107.966 27.5537C107.898 27.7318 107.898 27.9322 107.863 28.1215C107.658 29.1012 107.223 29.9474 106.514 30.6711C105.668 31.5506 104.628 32.085 103.405 32.2409C101.713 32.4636 100.227 31.996 98.9807 30.8492C98.1347 30.0698 97.6088 29.1012 97.4259 27.9767C97.1744 26.3958 97.5745 24.9707 98.6377 23.7571C99.4608 22.8219 100.501 22.2207 101.759 22.0425C103.794 21.7419 105.497 22.3654 106.812 23.913C107.498 24.7257 107.863 25.6721 107.955 26.7186C107.978 26.7966 107.955 26.8745 107.966 26.9636C107.966 27.0638 107.966 27.164 107.966 27.2753C107.978 27.3421 107.955 27.4089 107.978 27.4757C107.966 27.498 107.966 27.5314 107.966 27.5537Z" fill="white"/>
<path d="M46.919 16.7207C46.919 11.7106 46.919 6.68931 46.919 1.67919C46.919 1.54558 46.9533 1.52332 47.079 1.52332C50.3028 1.52332 53.5381 1.52332 56.762 1.52332C56.8877 1.52332 56.9106 1.55672 56.9106 1.67919C56.9106 9.06077 56.9106 16.4423 56.9106 23.8239C56.9106 24.0021 56.9106 24.0021 57.0935 24.0021C60.6146 24.0021 64.1471 24.0021 67.6682 24.0021C67.8054 24.0021 67.8282 24.0355 67.8282 24.1579C67.8282 26.6964 67.8282 29.2349 67.8282 31.7733C67.8282 31.9069 67.7825 31.9292 67.6567 31.9292C60.7975 31.9292 53.9382 31.9292 47.079 31.9292C46.9304 31.9292 46.9075 31.8958 46.9075 31.751C46.919 26.7409 46.919 21.7308 46.919 16.7207Z" fill="white"/>
</svg>
