<svg width="120" height="35" viewBox="0 0 120 35" fill="none" xmlns="http://www.w3.org/2000/svg">
<mask id="mask0_2_666" style="mask-type:luminance" maskUnits="userSpaceOnUse" x="35" y="0" width="50" height="35">
<path d="M35 0H85V35H35V0Z" fill="white"/>
</mask>
<g mask="url(#mask0_2_666)">
<path fill-rule="evenodd" clip-rule="evenodd" d="M36.4999 1C35.6715 1 34.9999 1.6819 34.9999 2.52308V34H50.9999V2.52308C50.9999 1.6819 50.3284 1 49.4999 1H36.4999ZM37.2499 23.3384H39.7499V14.7077L41.9999 23.3384H43.7499L46.2499 14.7077V23.3384H48.7499V11.6615H45.2499L42.9999 19.5308L40.6249 11.6615H37.2499V23.3384Z" fill="#262626"/>
<path fill-rule="evenodd" clip-rule="evenodd" d="M69.4999 1C68.6715 1 67.9999 1.6819 67.9999 2.52308V34H83.9999V2.52308C83.9999 1.6819 83.3283 1 82.4999 1H69.4999ZM72.4999 11.9154V23.3384H79.7499V21.0538H75V11.9154H72.4999Z" fill="#262626"/>
<path fill-rule="evenodd" clip-rule="evenodd" d="M53.4062 1C52.6295 1 51.9999 1.6819 51.9999 2.52308V34H66.9999V2.52308C66.9999 1.6819 66.3703 1 65.5937 1H53.4062ZM55.7499 11.9154V23.3255H57.7823V18.7053H59.1075C60.0278 18.7053 60.7304 18.6532 61.2157 18.5491C61.5726 18.4648 61.9229 18.2938 62.2663 18.036C62.6141 17.7732 62.9001 17.4137 63.1244 16.9576C63.3487 16.5015 63.461 15.9387 63.461 15.2694C63.461 14.4018 63.2665 13.6953 62.8773 13.1499C62.4881 12.5996 62.0053 12.2426 61.4284 12.079C61.0531 11.9699 60.2474 11.9154 59.0114 11.9154H55.7499ZM58.0168 16.8535V13.7597H58.7643C59.4967 13.7597 59.9843 13.7845 60.2269 13.8341C60.5564 13.8986 60.8288 14.0597 61.044 14.3175C61.2592 14.5753 61.3667 14.9025 61.3667 15.2992C61.3667 15.6214 61.2888 15.904 61.1333 16.147C60.9821 16.3899 60.7716 16.5684 60.5015 16.6824C60.2314 16.7965 59.6958 16.8535 58.8948 16.8535H58.0168Z" fill="#262626"/>
</g>
</svg>
