<svg width="120" height="33" viewBox="0 0 120 33" fill="none" xmlns="http://www.w3.org/2000/svg">
<g clip-path="url(#clip0_2_674)">
<mask id="mask0_2_674" style="mask-type:luminance" maskUnits="userSpaceOnUse" x="0" y="0" width="120" height="33">
<path d="M119.968 0H0V33H119.968V0Z" fill="white"/>
</mask>
<g mask="url(#mask0_2_674)">
<path fill-rule="evenodd" clip-rule="evenodd" d="M116.974 18.0418V18.0259C116.988 18.033 117.001 18.0383 117.011 18.0418H116.974ZM116.974 18.0259V16.4789C116.974 15.1272 115.576 14.4144 114.065 14.4514C112.95 14.4514 111.803 14.8051 111.12 15.5866L109.471 13.8811C110.975 12.2126 112.667 11.8219 114.46 11.8219C117.188 11.8219 119.952 13.2422 119.952 16.3733V25.1909C118.66 25.6555 116.723 26.1149 114.674 26.1149C111.765 26.1149 109.001 25.1909 109.001 21.9173C109.001 18.8971 111.589 17.5085 114.172 17.5085C115.165 17.5085 116.189 17.6827 116.974 18.0259ZM117.011 20.3174C116.398 20.0693 115.501 19.8581 114.604 19.8581C112.881 19.8581 111.909 20.7082 111.909 21.9173C111.909 23.2373 113.169 23.6966 114.498 23.6966C115.464 23.6966 116.365 23.5541 117.011 23.4115V20.3174ZM108.606 26.1149C108.211 26.1518 107.854 26.1888 107.496 26.1888C104.764 26.1888 102.576 24.7262 102.576 21.2414V8.83344H105.233L105.521 12.0701H108.179V14.7365H105.521V21.2098C105.521 23.3798 106.994 23.5171 108.606 23.5171V26.1149ZM100.676 23.3059C99.5978 25.1909 97.5165 26.1149 95.6807 26.1149C92.9163 26.1149 90.152 24.552 90.152 21.3893V16.5528C90.152 13.3478 92.9537 11.8219 95.6807 11.8219C98.3383 11.8219 101.103 13.3162 101.103 16.5528V20.3544H93.1352V21.3154C93.1352 22.5614 94.352 23.3059 95.6113 23.3059C96.6147 23.3059 97.6927 22.9522 98.1943 21.9226L100.676 23.3059ZM98.237 17.8992V16.6162C98.237 15.3384 96.9775 14.6626 95.686 14.6626C94.3572 14.6626 93.1032 15.3014 93.1405 16.6531V17.8992H98.237ZM86.854 12.1018H90.5895L84.7727 18.4694L90.5522 25.8984H87.0673L82.6913 20.2435L81.8642 21.0619V25.8667H78.9183V6.98016H81.8642V17.651L86.854 12.1018ZM66.676 16.5792C66.676 13.3426 69.4405 11.8166 72.1675 11.8166C74.3608 11.8166 76.837 12.8093 77.5895 15.444L74.8945 16.4366C74.537 15.2275 73.459 14.6626 72.3115 14.6626C71.0575 14.6626 69.6538 15.3014 69.6538 16.5106V21.4157C69.6538 22.5931 70.9133 23.269 72.2048 23.269C73.3522 23.269 74.5743 22.6987 74.9318 21.4896L77.6642 22.4822C76.9065 25.117 74.3928 26.1149 72.2048 26.1149C69.4778 26.1149 66.7135 24.5837 66.7135 21.384L66.676 16.5792ZM62.0758 16.4683C62.0758 15.1219 60.6777 14.4091 59.1673 14.4461C58.0573 14.4461 56.91 14.7998 56.2268 15.5813L54.5725 13.8758C56.0828 12.2021 57.8065 11.8114 59.5623 11.8114C62.2947 11.8114 65.059 13.237 65.059 16.3627V25.1856C63.7677 25.645 61.825 26.1096 59.7812 26.1096C56.8727 26.1096 54.1083 25.1856 54.1083 21.912C54.1083 18.8866 56.6912 17.5032 59.2795 17.5032C60.2828 17.5032 61.3233 17.6774 62.1132 18.0365L62.0758 16.4683ZM62.1132 20.3069C61.4995 20.0587 60.603 19.8475 59.7063 19.8475C57.9827 19.8475 57.0167 20.6976 57.0167 21.9067C57.0167 23.2267 58.2335 23.6861 59.5997 23.6861C60.571 23.6861 61.4675 23.5435 62.1132 23.401V20.3069ZM39.7473 7.00656H47.1067C51.52 7.00656 53.7133 10.1746 53.7133 13.2317C53.7133 16.3627 51.4827 19.3459 47.1387 19.3459H42.7945V25.8562H39.7473V7.00656ZM42.7945 16.4683H47.1067C49.476 16.4683 50.6235 14.7946 50.6235 13.2317C50.6235 11.6635 49.4013 10.0637 47.1067 10.0637H42.7945V16.4683Z" fill="#262626"/>
<path d="M16.2074 13.2528L15.4283 13.6171L14.6438 13.2528L3.741 7.92L8.91221 5.9664L20.0978 11.3414L16.2074 13.2528ZM27.1315 7.92L23.2252 9.7944L11.9061 4.81536L15.4283 3.46896L27.1315 7.92Z" fill="#262626"/>
<path d="M15.8498 0.0263977L30.1627 5.50176L28.1508 7.09632L15.4282 2.2176L2.70033 7.09632L0.693753 5.50176L15.0173 0.0263977H15.8498ZM28.487 7.56624L30.8512 6.66336L29.074 21.1834L28.7165 21.8275L16.1593 33L15.7484 30.4286L26.934 20.4864L28.487 7.56624ZM2.13998 21.8275L1.78243 21.1834L0.00532532 6.66336L2.37479 7.56624L3.93309 20.497L15.108 30.4445L14.7131 33L2.13998 21.8275Z" fill="#262626"/>
<path d="M23.5293 10.2485L27.1422 8.07312L25.7173 19.763L15.503 28.8552L16.0633 14.7734L20.5462 12.049L20.2527 18.9499L23.0437 17.0122L23.5293 10.2485Z" fill="#262626"/>
<path d="M14.7878 14.7734L15.3482 28.8446L5.14453 19.763L3.71431 8.07312L14.7878 14.7734Z" fill="#262626"/>
</g>
</g>
<defs>
<clipPath id="clip0_2_674">
<rect width="120" height="33" fill="white"/>
</clipPath>
</defs>
</svg>
